{
  "accessors": [
    {
      "bufferView": 2,
      "componentType": 5126,
      "count": 36,
      "max": [
        10.0,
        5.0,
        64.88188934326172
      ],
      "min": [
        -9.0,
        -1.4210854715202004e-14,
        39.88188934326172
      ],
      "type": "VEC3"
    },
    {
      "bufferView": 2,
      "byteOffset": 432,
      "componentType": 5126,
      "count": 36,
      "max": [
        0.40824830532073975,
        0.9923722147941589,
        0.5994082689285278
      ],
      "min": [
        -0.34077709913253784,
        0.7990018725395203,
        -0.40824830532073975
      ],
      "type": "VEC3"
    },
    {
      "bufferView": 1,
      "componentType": 5126,
      "count": 36,
      "max": [
        -0.1432618349790573,
        0.07812664657831192
      ],
      "min": [
        -0.8953505754470825,
        -0.9979126453399658
      ],
      "type": "VEC2"
    },
    {
      "bufferView": 0,
      "componentType": 5125,
      "count": 36,
      "type": "SCALAR"
    },
    {
      "bufferView": 2,
      "byteOffset": 864,
      "componentType": 5126,
      "count": 1889,
      "max": [
        26.0,
        10.0,
        81.88188934326172
      ],
      "min": [
        -25.0,
        -35.0,
        -0.11811023950576782
      ],
      "type": "VEC3"
    },
    {
      "bufferView": 2,
      "byteOffset": 23532,
      "componentType": 5126,
      "count": 1889,
      "max": [
        1.0,
        1.0,
        1.0
      ],
      "min": [
        -1.0,
        -1.0,
        -1.0
      ],
      "type": "VEC3"
    },
    {
      "bufferView": 1,
      "byteOffset": 288,
      "componentType": 5126,
      "count": 1889,
      "max": [
        18.155237197875977,
        15.563638687133789
      ],
      "min": [
        -22.24380874633789,
        -4.892271518707275
      ],
      "type": "VEC2"
    },
    {
      "bufferView": 0,
      "byteOffset": 144,
      "componentType": 5125,
      "count": 1947,
      "type": "SCALAR"
    },
    {
      "bufferView": 2,
      "byteOffset": 46200,
      "componentType": 5126,
      "count": 90,
      "max": [
        18.0,
        -2.0,
        11.881889343261719
      ],
      "min": [
        -17.0,
        -16.0,
        1.881889820098877
      ],
      "type": "VEC3"
    },
    {
      "bufferView": 2,
      "byteOffset": 47280,
      "componentType": 5126,
      "count": 90,
      "max": [
        0.7863336801528931,
        0.7276068925857544,
        1.0
      ],
      "min": [
        -0.7863336801528931,
        -0.9615239500999451,
        0.16903086006641388
      ],
      "type": "VEC3"
    },
    {
      "bufferView": 1,
      "byteOffset": 15400,
      "componentType": 5126,
      "count": 90,
      "max": [
        -1.2904454469680786,
        -0.9870302081108093
      ],
      "min": [
        -1.753779649734497,
        -1.7794445753097534
      ],
      "type": "VEC2"
    },
    {
      "bufferView": 0,
      "byteOffset": 7932,
      "componentType": 5125,
      "count": 90,
      "type": "SCALAR"
    },
    {
      "bufferView": 2,
      "byteOffset": 48360,
      "componentType": 5126,
      "count": 104,
      "max": [
        11.0,
        -10.0,
        69.88188934326172
      ],
      "min": [
        -10.0,
        -17.0,
        49.88188934326172
      ],
      "type": "VEC3"
    },
    {
      "bufferView": 2,
      "byteOffset": 49608,
      "componentType": 5126,
      "count": 104,
      "max": [
        0.847998321056366,
        0.6469966769218445,
        0.8351699709892273
      ],
      "min": [
        -0.847998321056366,
        -1.0,
        -1.0
      ],
      "type": "VEC3"
    },
    {
      "bufferView": 0,
      "byteOffset": 8292,
      "componentType": 5125,
      "count": 123,
      "type": "SCALAR"
    }
  ],
  "asset": {
    "extras": {
      "author": "smitty462_ (https://sketchfab.com/smitty462_)",
      "license": "CC-BY-4.0 (http://creativecommons.org/licenses/by/4.0/)",
      "source": "https://sketchfab.com/3d-models/crash-bandicoot-1b03d855ede0483f8fa98ce0fdf7f62b",
      "title": "Crash Bandicoot!"
    },
    "generator": "Sketchfab-12.68.0",
    "version": "2.0"
  },
  "bufferViews": [
    {
      "buffer": 0,
      "byteLength": 8784,
      "name": "floatBufferViews",
      "target": 34963
    },
    {
      "buffer": 0,
      "byteLength": 16120,
      "byteOffset": 8784,
      "byteStride": 8,
      "name": "floatBufferViews",
      "target": 34962
    },
    {
      "buffer": 0,
      "byteLength": 50856,
      "byteOffset": 24904,
      "byteStride": 12,
      "name": "floatBufferViews",
      "target": 34962
    }
  ],
  "buffers": [
    {
      "byteLength": 75760,
      "uri": "scene.bin"
    }
  ],
  "images": [
    {
      "uri": "textures/material_1_baseColor.png"
    },
    {
      "uri": "textures/CrashShoes_baseColor.png"
    },
    {
      "uri": "textures/CrashBack_baseColor.png"
    }
  ],
  "materials": [
    {
      "name": "material_1",
      "pbrMetallicRoughness": {
        "baseColorTexture": {
          "index": 0
        },
        "metallicFactor": 0.0,
        "roughnessFactor": 0.6
      }
    },
    {
      "name": "CrashShoes",
      "pbrMetallicRoughness": {
        "baseColorTexture": {
          "index": 1
        },
        "metallicFactor": 0.0,
        "roughnessFactor": 0.6
      }
    },
    {
      "name": "CrashBack",
      "pbrMetallicRoughness": {
        "baseColorTexture": {
          "index": 2
        },
        "metallicFactor": 0.0,
        "roughnessFactor": 0.6
      }
    },
    {
      "name": "material",
      "pbrMetallicRoughness": {
        "metallicFactor": 0.0,
        "roughnessFactor": 0.6
      }
    }
  ],
  "meshes": [
    {
      "name": "Material2",
      "primitives": [
        {
          "attributes": {
            "NORMAL": 1,
            "POSITION": 0,
            "TEXCOORD_0": 2
          },
          "indices": 3,
          "material": 2,
          "mode": 4
        }
      ]
    },
    {
      "name": "Material2",
      "primitives": [
        {
          "attributes": {
            "NORMAL": 5,
            "POSITION": 4,
            "TEXCOORD_0": 6
          },
          "indices": 7,
          "material": 0,
          "mode": 4
        }
      ]
    },
    {
      "name": "Material2",
      "primitives": [
        {
          "attributes": {
            "NORMAL": 9,
            "POSITION": 8,
            "TEXCOORD_0": 10
          },
          "indices": 11,
          "material": 1,
          "mode": 4
        }
      ]
    },
    {
      "name": "Material2",
      "primitives": [
        {
          "attributes": {
            "NORMAL": 13,
            "POSITION": 12
          },
          "indices": 14,
          "material": 3,
          "mode": 4
        }
      ]
    }
  ],
  "nodes": [
    {
      "children": [
        1
      ],
      "matrix": [
        1.0,
        0.0,
        0.0,
        0.0,
        0.0,
        2.220446049250313e-16,
        -1.0,
        0.0,
        0.0,
        1.0,
        2.220446049250313e-16,
        0.0,
        0.0,
        0.0,
        0.0,
        1.0
      ],
      "name": "Sketchfab_model"
    },
    {
      "children": [
        2
      ],
      "name": "Collada visual scene group"
    },
    {
      "children": [
        3,
        4,
        5,
        6
      ],
      "name": "SketchUp"
    },
    {
      "mesh": 0,
      "name": "Material2"
    },
    {
      "mesh": 1,
      "name": "Material2"
    },
    {
      "mesh": 2,
      "name": "Material2"
    },
    {
      "mesh": 3,
      "name": "Material2"
    }
  ],
  "samplers": [
    {
      "magFilter": 9729,
      "minFilter": 9987,
      "wrapS": 10497,
      "wrapT": 10497
    }
  ],
  "scene": 0,
  "scenes": [
    {
      "name": "Sketchfab_Scene",
      "nodes": [
        0
      ]
    }
  ],
  "textures": [
    {
      "sampler": 0,
      "source": 0
    },
    {
      "sampler": 0,
      "source": 1
    },
    {
      "sampler": 0,
      "source": 2
    }
  ]
}
