{
  "accessors": [
    {
      "bufferView": 2,
      "componentType": 5126,
      "count": 245,
      "max": [
        11.259599685668945,
        9.070876121520996,
        -123.57100677490234
      ],
      "min": [
        -11.259599685668945,
        -12.779751777648926,
        -152.40199279785156
      ],
      "type": "VEC3"
    },
    {
      "bufferView": 2,
      "byteOffset": 2940,
      "componentType": 5126,
      "count": 245,
      "max": [
        0.9979567527770996,
        0.9999856948852539,
        0.9829440116882324
      ],
      "min": [
        -0.9979567527770996,
        -0.963820219039917,
        -0.9374237656593323
      ],
      "type": "VEC3"
    },
    {
      "bufferView": 1,
      "componentType": 5126,
      "count": 245,
      "max": [
        0.9959383010864258,
        0.9965531229972839
      ],
      "min": [
        0.01184397004544735,
        0.003253041999414563
      ],
      "type": "VEC2"
    },
    {
      "bufferView": 0,
      "componentType": 5125,
      "count": 1206,
      "type": "SCALAR"
    },
    {
      "bufferView": 2,
      "byteOffset": 5880,
      "componentType": 5126,
      "count": 405,
      "max": [
        65.2017822265625,
        9.296843528747559,
        -116.34700012207031
      ],
      "min": [
        -65.20179748535156,
        -23.821611404418945,
        -155.21200561523438
      ],
      "type": "VEC3"
    },
    {
      "bufferView": 2,
      "byteOffset": 10740,
      "componentType": 5126,
      "count": 405,
      "max": [
        1.0,
        0.9807001352310181,
        0.9987505674362183
      ],
      "min": [
        -1.0,
        -0.997912585735321,
        -0.9998565316200256
      ],
      "type": "VEC3"
    },
    {
      "bufferView": 1,
      "byteOffset": 1960,
      "componentType": 5126,
      "count": 405,
      "max": [
        0.9932739734649658,
        0.9941452741622925
      ],
      "min": [
        0.0071897502057254314,
        0.003696619998663664
      ],
      "type": "VEC2"
    },
    {
      "bufferView": 0,
      "byteOffset": 4824,
      "componentType": 5125,
      "count": 1320,
      "type": "SCALAR"
    },
    {
      "bufferView": 2,
      "byteOffset": 15600,
      "componentType": 5126,
      "count": 212,
      "max": [
        18.18449592590332,
        9.296843528747559,
        -127.52700805664063
      ],
      "min": [
        -18.184499740600586,
        -25.40081214904785,
        -161.65499877929688
      ],
      "type": "VEC3"
    },
    {
      "bufferView": 2,
      "byteOffset": 18144,
      "componentType": 5126,
      "count": 212,
      "max": [
        0.9843517541885376,
        0.9985547065734863,
        0.9961108565330505
      ],
      "min": [
        -0.9843517541885376,
        -0.8700395822525024,
        -0.9999678134918213
      ],
      "type": "VEC3"
    },
    {
      "bufferView": 1,
      "byteOffset": 5200,
      "componentType": 5126,
      "count": 212,
      "max": [
        0.9852445721626282,
        0.9885793924331665
      ],
      "min": [
        0.020020240917801857,
        0.016281479969620705
      ],
      "type": "VEC2"
    },
    {
      "bufferView": 0,
      "byteOffset": 10104,
      "componentType": 5125,
      "count": 738,
      "type": "SCALAR"
    },
    {
      "bufferView": 2,
      "byteOffset": 20688,
      "componentType": 5126,
      "count": 248,
      "max": [
        60.686988830566406,
        8.422528266906738,
        -14.45079517364502
      ],
      "min": [
        -60.6870002746582,
        -21.44521141052246,
        -128.1370086669922
      ],
      "type": "VEC3"
    },
    {
      "bufferView": 2,
      "byteOffset": 23664,
      "componentType": 5126,
      "count": 248,
      "max": [
        0.9233686923980713,
        0.999894380569458,
        0.9957582354545593
      ],
      "min": [
        -0.9233686923980713,
        -0.999177873134613,
        -0.9878248572349548
      ],
      "type": "VEC3"
    },
    {
      "bufferView": 1,
      "byteOffset": 6896,
      "componentType": 5126,
      "count": 248,
      "max": [
        0.9962170720100403,
        0.9926502704620361
      ],
      "min": [
        0.0023673169780522585,
        -0.0009008650085888803
      ],
      "type": "VEC2"
    },
    {
      "bufferView": 0,
      "byteOffset": 13056,
      "componentType": 5125,
      "count": 810,
      "type": "SCALAR"
    },
    {
      "bufferView": 2,
      "byteOffset": 26640,
      "componentType": 5126,
      "count": 325,
      "max": [
        73.81019592285156,
        8.445008277893066,
        -95.87500762939453
      ],
      "min": [
        -73.81021881103516,
        -15.786150932312012,
        -133.625
      ],
      "type": "VEC3"
    },
    {
      "bufferView": 2,
      "byteOffset": 30540,
      "componentType": 5126,
      "count": 325,
      "max": [
        0.9999993443489075,
        0.999998152256012,
        0.9998056292533875
      ],
      "min": [
        -0.9999995231628418,
        -0.9963787198066711,
        -0.9961981177330017
      ],
      "type": "VEC3"
    },
    {
      "bufferView": 1,
      "byteOffset": 8880,
      "componentType": 5126,
      "count": 325,
      "max": [
        0.9931728839874268,
        1.0043690204620361
      ],
      "min": [
        0.005184471141546965,
        0.005864202044904232
      ],
      "type": "VEC2"
    },
    {
      "bufferView": 0,
      "byteOffset": 16296,
      "componentType": 5125,
      "count": 1260,
      "type": "SCALAR"
    },
    {
      "bufferView": 2,
      "byteOffset": 34440,
      "componentType": 5126,
      "count": 742,
      "max": [
        85.16268157958984,
        26.165494918823242,
        1.632376188354101e-05
      ],
      "min": [
        -85.16271209716797,
        -18.190500259399414,
        -126.74803161621094
      ],
      "type": "VEC3"
    },
    {
      "bufferView": 2,
      "byteOffset": 43344,
      "componentType": 5126,
      "count": 742,
      "max": [
        0.9992715716362,
        0.9999438524246216,
        0.9909141063690186
      ],
      "min": [
        -0.9992715716362,
        -0.9999991655349731,
        -0.9997352957725525
      ],
      "type": "VEC3"
    },
    {
      "bufferView": 1,
      "byteOffset": 11480,
      "componentType": 5126,
      "count": 742,
      "max": [
        1.1623469591140747,
        0.9972019195556641
      ],
      "min": [
        0.005773901008069515,
        0.002067387104034424
      ],
      "type": "VEC2"
    },
    {
      "bufferView": 0,
      "byteOffset": 21336,
      "componentType": 5125,
      "count": 2844,
      "type": "SCALAR"
    },
    {
      "bufferView": 2,
      "byteOffset": 52248,
      "componentType": 5126,
      "count": 742,
      "max": [
        85.16268157958984,
        26.165494918823242,
        1.632376188354101e-05
      ],
      "min": [
        -85.16271209716797,
        -18.190500259399414,
        -126.74803161621094
      ],
      "type": "VEC3"
    },
    {
      "bufferView": 2,
      "byteOffset": 61152,
      "componentType": 5126,
      "count": 742,
      "max": [
        0.9992715716362,
        0.9999438524246216,
        0.9909141063690186
      ],
      "min": [
        -0.9992715716362,
        -0.9999991655349731,
        -0.9997352957725525
      ],
      "type": "VEC3"
    },
    {
      "bufferView": 1,
      "byteOffset": 17416,
      "componentType": 5126,
      "count": 742,
      "max": [
        1.1623469591140747,
        0.9972019195556641
      ],
      "min": [
        0.005773901008069515,
        0.002067387104034424
      ],
      "type": "VEC2"
    },
    {
      "bufferView": 0,
      "byteOffset": 32712,
      "componentType": 5125,
      "count": 2844,
      "type": "SCALAR"
    },
    {
      "bufferView": 2,
      "byteOffset": 70056,
      "componentType": 5126,
      "count": 325,
      "max": [
        73.81019592285156,
        8.445008277893066,
        -95.87500762939453
      ],
      "min": [
        -73.81021881103516,
        -15.786150932312012,
        -133.625
      ],
      "type": "VEC3"
    },
    {
      "bufferView": 2,
      "byteOffset": 73956,
      "componentType": 5126,
      "count": 325,
      "max": [
        0.9999993443489075,
        0.999998152256012,
        0.9998056292533875
      ],
      "min": [
        -0.9999995231628418,
        -0.9963787198066711,
        -0.9961981177330017
      ],
      "type": "VEC3"
    },
    {
      "bufferView": 1,
      "byteOffset": 23352,
      "componentType": 5126,
      "count": 325,
      "max": [
        0.9931728839874268,
        1.0043690204620361
      ],
      "min": [
        0.005184471141546965,
        0.005864202044904232
      ],
      "type": "VEC2"
    },
    {
      "bufferView": 0,
      "byteOffset": 44088,
      "componentType": 5125,
      "count": 1260,
      "type": "SCALAR"
    },
    {
      "bufferView": 2,
      "byteOffset": 77856,
      "componentType": 5126,
      "count": 248,
      "max": [
        60.686988830566406,
        8.422528266906738,
        -14.45079517364502
      ],
      "min": [
        -60.6870002746582,
        -21.44521141052246,
        -128.1370086669922
      ],
      "type": "VEC3"
    },
    {
      "bufferView": 2,
      "byteOffset": 80832,
      "componentType": 5126,
      "count": 248,
      "max": [
        0.9233686923980713,
        0.999894380569458,
        0.9957582354545593
      ],
      "min": [
        -0.9233686923980713,
        -0.999177873134613,
        -0.9878248572349548
      ],
      "type": "VEC3"
    },
    {
      "bufferView": 1,
      "byteOffset": 25952,
      "componentType": 5126,
      "count": 248,
      "max": [
        0.9962170720100403,
        0.9926502704620361
      ],
      "min": [
        0.0023673169780522585,
        -0.0009008650085888803
      ],
      "type": "VEC2"
    },
    {
      "bufferView": 0,
      "byteOffset": 49128,
      "componentType": 5125,
      "count": 810,
      "type": "SCALAR"
    },
    {
      "bufferView": 2,
      "byteOffset": 83808,
      "componentType": 5126,
      "count": 212,
      "max": [
        18.18449592590332,
        9.296843528747559,
        -127.52700805664063
      ],
      "min": [
        -18.184499740600586,
        -25.40081214904785,
        -161.65499877929688
      ],
      "type": "VEC3"
    },
    {
      "bufferView": 2,
      "byteOffset": 86352,
      "componentType": 5126,
      "count": 212,
      "max": [
        0.9843517541885376,
        0.9985547065734863,
        0.9961108565330505
      ],
      "min": [
        -0.9843517541885376,
        -0.8700395822525024,
        -0.9999678134918213
      ],
      "type": "VEC3"
    },
    {
      "bufferView": 1,
      "byteOffset": 27936,
      "componentType": 5126,
      "count": 212,
      "max": [
        0.9852445721626282,
        0.9885793924331665
      ],
      "min": [
        0.020020240917801857,
        0.016281479969620705
      ],
      "type": "VEC2"
    },
    {
      "bufferView": 0,
      "byteOffset": 52368,
      "componentType": 5125,
      "count": 738,
      "type": "SCALAR"
    },
    {
      "bufferView": 2,
      "byteOffset": 88896,
      "componentType": 5126,
      "count": 405,
      "max": [
        65.2017822265625,
        9.296843528747559,
        -116.34700012207031
      ],
      "min": [
        -65.20179748535156,
        -23.821611404418945,
        -155.21200561523438
      ],
      "type": "VEC3"
    },
    {
      "bufferView": 2,
      "byteOffset": 93756,
      "componentType": 5126,
      "count": 405,
      "max": [
        1.0,
        0.9807001352310181,
        0.9987505674362183
      ],
      "min": [
        -1.0,
        -0.997912585735321,
        -0.9998565316200256
      ],
      "type": "VEC3"
    },
    {
      "bufferView": 1,
      "byteOffset": 29632,
      "componentType": 5126,
      "count": 405,
      "max": [
        0.9932739734649658,
        0.9941452741622925
      ],
      "min": [
        0.0071897502057254314,
        0.003696619998663664
      ],
      "type": "VEC2"
    },
    {
      "bufferView": 0,
      "byteOffset": 55320,
      "componentType": 5125,
      "count": 1320,
      "type": "SCALAR"
    },
    {
      "bufferView": 2,
      "byteOffset": 98616,
      "componentType": 5126,
      "count": 245,
      "max": [
        11.259599685668945,
        9.070876121520996,
        -123.57100677490234
      ],
      "min": [
        -11.259599685668945,
        -12.779751777648926,
        -152.40199279785156
      ],
      "type": "VEC3"
    },
    {
      "bufferView": 2,
      "byteOffset": 101556,
      "componentType": 5126,
      "count": 245,
      "max": [
        0.9979567527770996,
        0.9999856948852539,
        0.9829440116882324
      ],
      "min": [
        -0.9979567527770996,
        -0.963820219039917,
        -0.9374237656593323
      ],
      "type": "VEC3"
    },
    {
      "bufferView": 1,
      "byteOffset": 32872,
      "componentType": 5126,
      "count": 245,
      "max": [
        0.9959383010864258,
        0.9965531229972839
      ],
      "min": [
        0.01184397004544735,
        0.003253041999414563
      ],
      "type": "VEC2"
    },
    {
      "bufferView": 0,
      "byteOffset": 60600,
      "componentType": 5125,
      "count": 1206,
      "type": "SCALAR"
    }
  ],
  "asset": {
    "extras": {
      "author": "Tigerar1 (https://sketchfab.com/allanromanreyes)",
      "license": "SKETCHFAB Standard (https://sketchfab.com/licenses)",
      "source": "https://sketchfab.com/3d-models/kingdom-hearts-riku-130b7c4f65b748a6a6da3cb9ac8f70bb",
      "title": "Kingdom Hearts Riku"
    },
    "generator": "Sketchfab-16.31.0",
    "version": "2.0"
  },
  "bufferViews": [
    {
      "buffer": 0,
      "byteLength": 65424,
      "name": "floatBufferViews",
      "target": 34963
    },
    {
      "buffer": 0,
      "byteLength": 34832,
      "byteOffset": 65424,
      "byteStride": 8,
      "name": "floatBufferViews",
      "target": 34962
    },
    {
      "buffer": 0,
      "byteLength": 104496,
      "byteOffset": 100256,
      "byteStride": 12,
      "name": "floatBufferViews",
      "target": 34962
    }
  ],
  "buffers": [
    {
      "byteLength": 204752,
      "uri": "scene.bin"
    }
  ],
  "images": [
    {
      "uri": "textures/material000_baseColor.png"
    },
    {
      "uri": "textures/material001_baseColor.png"
    },
    {
      "uri": "textures/material002_baseColor.png"
    },
    {
      "uri": "textures/material003_baseColor.png"
    },
    {
      "uri": "textures/material004_baseColor.png"
    },
    {
      "uri": "textures/material005_baseColor.png"
    }
  ],
  "materials": [
    {
      "doubleSided": true,
      "name": "material000",
      "pbrMetallicRoughness": {
        "baseColorTexture": {
          "index": 0
        },
        "metallicFactor": 0.0,
        "roughnessFactor": 0.6
      }
    },
    {
      "doubleSided": true,
      "name": "material001",
      "pbrMetallicRoughness": {
        "baseColorTexture": {
          "index": 1
        },
        "metallicFactor": 0.0,
        "roughnessFactor": 0.6
      }
    },
    {
      "doubleSided": true,
      "name": "material002",
      "pbrMetallicRoughness": {
        "baseColorTexture": {
          "index": 2
        },
        "metallicFactor": 0.0,
        "roughnessFactor": 0.6
      }
    },
    {
      "doubleSided": true,
      "name": "material003",
      "pbrMetallicRoughness": {
        "baseColorTexture": {
          "index": 3
        },
        "metallicFactor": 0.0,
        "roughnessFactor": 0.6
      }
    },
    {
      "doubleSided": true,
      "name": "material004",
      "pbrMetallicRoughness": {
        "baseColorTexture": {
          "index": 4
        },
        "metallicFactor": 0.0,
        "roughnessFactor": 0.6
      }
    },
    {
      "doubleSided": true,
      "name": "material005",
      "pbrMetallicRoughness": {
        "baseColorTexture": {
          "index": 5
        },
        "metallicFactor": 0.0,
        "roughnessFactor": 0.6
      }
    }
  ],
  "meshes": [
    {
      "name": "Object_0",
      "primitives": [
        {
          "attributes": {
            "NORMAL": 1,
            "POSITION": 0,
            "TEXCOORD_0": 2
          },
          "indices": 3,
          "material": 0,
          "mode": 4
        }
      ]
    },
    {
      "name": "Object_1",
      "primitives": [
        {
          "attributes": {
            "NORMAL": 5,
            "POSITION": 4,
            "TEXCOORD_0": 6
          },
          "indices": 7,
          "material": 1,
          "mode": 4
        }
      ]
    },
    {
      "name": "Object_2",
      "primitives": [
        {
          "attributes": {
            "NORMAL": 9,
            "POSITION": 8,
            "TEXCOORD_0": 10
          },
          "indices": 11,
          "material": 2,
          "mode": 4
        }
      ]
    },
    {
      "name": "Object_3",
      "primitives": [
        {
          "attributes": {
            "NORMAL": 13,
            "POSITION": 12,
            "TEXCOORD_0": 14
          },
          "indices": 15,
          "material": 3,
          "mode": 4
        }
      ]
    },
    {
      "name": "Object_4",
      "primitives": [
        {
          "attributes": {
            "NORMAL": 17,
            "POSITION": 16,
            "TEXCOORD_0": 18
          },
          "indices": 19,
          "material": 4,
          "mode": 4
        }
      ]
    },
    {
      "name": "Object_5",
      "primitives": [
        {
          "attributes": {
            "NORMAL": 21,
            "POSITION": 20,
            "TEXCOORD_0": 22
          },
          "indices": 23,
          "material": 5,
          "mode": 4
        }
      ]
    },
    {
      "name": "Object_6",
      "primitives": [
        {
          "attributes": {
            "NORMAL": 25,
            "POSITION": 24,
            "TEXCOORD_0": 26
          },
          "indices": 27,
          "material": 5,
          "mode": 4
        }
      ]
    },
    {
      "name": "Object_7",
      "primitives": [
        {
          "attributes": {
            "NORMAL": 29,
            "POSITION": 28,
            "TEXCOORD_0": 30
          },
          "indices": 31,
          "material": 4,
          "mode": 4
        }
      ]
    },
    {
      "name": "Object_8",
      "primitives": [
        {
          "attributes": {
            "NORMAL": 33,
            "POSITION": 32,
            "TEXCOORD_0": 34
          },
          "indices": 35,
          "material": 3,
          "mode": 4
        }
      ]
    },
    {
      "name": "Object_9",
      "primitives": [
        {
          "attributes": {
            "NORMAL": 37,
            "POSITION": 36,
            "TEXCOORD_0": 38
          },
          "indices": 39,
          "material": 2,
          "mode": 4
        }
      ]
    },
    {
      "name": "Object_10",
      "primitives": [
        {
          "attributes": {
            "NORMAL": 41,
            "POSITION": 40,
            "TEXCOORD_0": 42
          },
          "indices": 43,
          "material": 1,
          "mode": 4
        }
      ]
    },
    {
      "name": "Object_11",
      "primitives": [
        {
          "attributes": {
            "NORMAL": 45,
            "POSITION": 44,
            "TEXCOORD_0": 46
          },
          "indices": 47,
          "material": 0,
          "mode": 4
        }
      ]
    }
  ],
  "nodes": [
    {
      "children": [
        1
      ],
      "matrix": [
        1.0,
        0.0,
        0.0,
        0.0,
        0.0,
        2.220446049250313e-16,
        -1.0,
        0.0,
        0.0,
        1.0,
        2.220446049250313e-16,
        0.0,
        0.0,
        0.0,
        0.0,
        1.0
      ],
      "name": "Sketchfab_model"
    },
    {
      "children": [
        2
      ],
      "name": "Collada visual scene group"
    },
    {
      "children": [
        3
      ],
      "matrix": [
        1.0,
        0.0,
        0.0,
        0.0,
        0.0,
        -1.62921e-07,
        1.0,
        0.0,
        0.0,
        -1.0,
        -1.62921e-07,
        0.0,
        0.0,
        0.0,
        0.0,
        1.0
      ],
      "name": "Armature"
    },
    {
      "children": [
        4,
        5,
        6,
        7,
        8,
        9,
        10,
        11,
        12,
        13,
        14,
        15
      ],
      "name": "Object_3"
    },
    {
      "mesh": 0,
      "name": "Object_4"
    },
    {
      "mesh": 1,
      "name": "Object_5"
    },
    {
      "mesh": 2,
      "name": "Object_6"
    },
    {
      "mesh": 3,
      "name": "Object_7"
    },
    {
      "mesh": 4,
      "name": "Object_8"
    },
    {
      "mesh": 5,
      "name": "Object_9"
    },
    {
      "mesh": 6,
      "name": "Object_10"
    },
    {
      "mesh": 7,
      "name": "Object_11"
    },
    {
      "mesh": 8,
      "name": "Object_12"
    },
    {
      "mesh": 9,
      "name": "Object_13"
    },
    {
      "mesh": 10,
      "name": "Object_14"
    },
    {
      "mesh": 11,
      "name": "Object_15"
    }
  ],
  "samplers": [
    {
      "magFilter": 9729,
      "minFilter": 9987,
      "wrapS": 10497,
      "wrapT": 10497
    }
  ],
  "scene": 0,
  "scenes": [
    {
      "name": "Sketchfab_Scene",
      "nodes": [
        0
      ]
    }
  ],
  "textures": [
    {
      "sampler": 0,
      "source": 0
    },
    {
      "sampler": 0,
      "source": 1
    },
    {
      "sampler": 0,
      "source": 2
    },
    {
      "sampler": 0,
      "source": 3
    },
    {
      "sampler": 0,
      "source": 4
    },
    {
      "sampler": 0,
      "source": 5
    }
  ]
}
