{
  "accessors": [
    {
      "bufferView": 2,
      "componentType": 5126,
      "count": 957,
      "max": [
        74.168212890625,
        15.817547798156738,
        149.0154571533203
      ],
      "min": [
        -74.16819763183594,
        -54.8349723815918,
        -3.000000106112566e-06
      ],
      "type": "VEC3"
    },
    {
      "bufferView": 2,
      "byteOffset": 11484,
      "componentType": 5126,
      "count": 957,
      "max": [
        0.9945531487464905,
        0.9997987151145935,
        0.9981010556221008
      ],
      "min": [
        -0.9945532083511353,
        -0.9998456835746765,
        -1.0
      ],
      "type": "VEC3"
    },
    {
      "bufferView": 1,
      "componentType": 5126,
      "count": 957,
      "max": [
        0.9931640028953552,
        0.9968259930610657
      ],
      "min": [
        0.004883000161498785,
        0.009277000091969967
      ],
      "type": "VEC2"
    },
    {
      "bufferView": 0,
      "componentType": 5125,
      "count": 2382,
      "type": "SCALAR"
    }
  ],
  "asset": {
    "extras": {
      "author": "dgoodwin849 (https://sketchfab.com/dgoodwin849)",
      "license": "CC-BY-4.0 (http://creativecommons.org/licenses/by/4.0/)",
      "source": "https://sketchfab.com/3d-models/heartless-f71f9706af1742989082126a8daec21f",
      "title": "heartless"
    },
    "generator": "Sketchfab-12.67.0",
    "version": "2.0"
  },
  "bufferViews": [
    {
      "buffer": 0,
      "byteLength": 9528,
      "name": "floatBufferViews",
      "target": 34963
    },
    {
      "buffer": 0,
      "byteLength": 7656,
      "byteOffset": 9528,
      "byteStride": 8,
      "name": "floatBufferViews",
      "target": 34962
    },
    {
      "buffer": 0,
      "byteLength": 22968,
      "byteOffset": 17184,
      "byteStride": 12,
      "name": "floatBufferViews",
      "target": 34962
    }
  ],
  "buffers": [
    {
      "byteLength": 40152,
      "uri": "scene.bin"
    }
  ],
  "images": [
    {
      "uri": "textures/default_material_texture000.png_baseColor.png"
    }
  ],
  "materials": [
    {
      "doubleSided": true,
      "name": "default_material_texture000.png",
      "pbrMetallicRoughness": {
        "baseColorTexture": {
          "index": 0
        },
        "metallicFactor": 0.0,
        "roughnessFactor": 0.9263489977632472
      }
    }
  ],
  "meshes": [
    {
      "name": "Object_0",
      "primitives": [
        {
          "attributes": {
            "NORMAL": 1,
            "POSITION": 0,
            "TEXCOORD_0": 2
          },
          "indices": 3,
          "material": 0,
          "mode": 4
        }
      ]
    }
  ],
  "nodes": [
    {
      "children": [
        1
      ],
      "matrix": [
        1.0,
        0.0,
        0.0,
        0.0,
        0.0,
        2.220446049250313e-16,
        -1.0,
        0.0,
        0.0,
        1.0,
        2.220446049250313e-16,
        0.0,
        0.0,
        0.0,
        0.0,
        1.0
      ],
      "name": "Sketchfab_model"
    },
    {
      "children": [
        2
      ],
      "name": "Shadow.obj.cleaner.materialmerger.gles"
    },
    {
      "mesh": 0,
      "name": "Object_2"
    }
  ],
  "samplers": [
    {
      "magFilter": 9729,
      "minFilter": 9987,
      "wrapS": 10497,
      "wrapT": 10497
    }
  ],
  "scene": 0,
  "scenes": [
    {
      "name": "Sketchfab_Scene",
      "nodes": [
        0
      ]
    }
  ],
  "textures": [
    {
      "sampler": 0,
      "source": 0
    }
  ]
}
