{
  "accessors": [
    {
      "bufferView": 3,
      "componentType": 5126,
      "count": 1078,
      "max": [
        0.012604949995875359,
        0.18465900421142578,
        0.011465010233223438
      ],
      "min": [
        -0.012207980267703533,
        0.15220700204372406,
        -0.020984940230846405
      ],
      "type": "VEC3"
    },
    {
      "bufferView": 3,
      "byteOffset": 12936,
      "componentType": 5126,
      "count": 1078,
      "max": [
        1.0,
        1.0,
        1.0
      ],
      "min": [
        -0.9928821325302124,
        -0.97557133436203,
        -0.9987220764160156
      ],
      "type": "VEC3"
    },
    {
      "bufferView": 4,
      "componentType": 5126,
      "count": 1078,
      "max": [
        0.9953054785728455,
        0.9957370758056641,
        0.9864770770072937,
        1.0
      ],
      "min": [
        -0.9967361688613892,
        -0.9995269775390625,
        -0.9980834722518921,
        -1.0
      ],
      "type": "VEC4"
    },
    {
      "bufferView": 2,
      "componentType": 5126,
      "count": 1078,
      "max": [
        0.9946659803390503,
        0.9990230202674866
      ],
      "min": [
        0.0027929539792239666,
        0.002093970077112317
      ],
      "type": "VEC2"
    },
    {
      "bufferView": 1,
      "componentType": 5125,
      "count": 2088,
      "type": "SCALAR"
    },
    {
      "bufferView": 3,
      "byteOffset": 25872,
      "componentType": 5126,
      "count": 852,
      "max": [
        0.009976983070373535,
        0.17840300500392914,
        0.007070004008710384
      ],
      "min": [
        -0.010004989802837372,
        0.1496810019016266,
        -0.01910596899688244
      ],
      "type": "VEC3"
    },
    {
      "bufferView": 3,
      "byteOffset": 36096,
      "componentType": 5126,
      "count": 852,
      "max": [
        0.999494731426239,
        0.9991602301597595,
        0.9999309778213501
      ],
      "min": [
        -0.9964368343353271,
        -0.9976651668548584,
        -0.991224467754364
      ],
      "type": "VEC3"
    },
    {
      "bufferView": 4,
      "byteOffset": 17248,
      "componentType": 5126,
      "count": 852,
      "max": [
        0.9997900724411011,
        0.9954746961593628,
        0.9983658790588379,
        1.0
      ],
      "min": [
        -0.9997903108596802,
        -0.9999309778213501,
        -0.9999390840530396,
        -1.0
      ],
      "type": "VEC4"
    },
    {
      "bufferView": 2,
      "byteOffset": 8624,
      "componentType": 5126,
      "count": 852,
      "max": [
        0.9946659803390503,
        0.9993190169334412
      ],
      "min": [
        0.0038499829825013876,
        0.002093970077112317
      ],
      "type": "VEC2"
    },
    {
      "bufferView": 1,
      "byteOffset": 8352,
      "componentType": 5125,
      "count": 3318,
      "type": "SCALAR"
    },
    {
      "bufferView": 3,
      "byteOffset": 46320,
      "componentType": 5126,
      "count": 24,
      "max": [
        0.0014199609868228436,
        0.15970200300216675,
        0.004326998721808195
      ],
      "min": [
        -0.0014199609868228436,
        0.15724900364875793,
        0.0032519688829779625
      ],
      "type": "VEC3"
    },
    {
      "bufferView": 3,
      "byteOffset": 46608,
      "componentType": 5126,
      "count": 24,
      "max": [
        0.2653017044067383,
        0.22283273935317993,
        0.9842102527618408
      ],
      "min": [
        -0.2653006911277771,
        -0.22283273935317993,
        -0.9842102527618408
      ],
      "type": "VEC3"
    },
    {
      "bufferView": 4,
      "byteOffset": 30880,
      "componentType": 5126,
      "count": 24,
      "max": [
        0.09570956975221634,
        0.9842102527618408,
        0.21137635409832,
        1.0
      ],
      "min": [
        -0.09570956975221634,
        -0.9781358242034912,
        -0.22283273935317993,
        -1.0
      ],
      "type": "VEC4"
    },
    {
      "bufferView": 2,
      "byteOffset": 15440,
      "componentType": 5126,
      "count": 24,
      "max": [
        0.09914696216583252,
        0.8617029786109924
      ],
      "min": [
        0.07223796099424362,
        0.8324599862098694
      ],
      "type": "VEC2"
    },
    {
      "bufferView": 1,
      "byteOffset": 21624,
      "componentType": 5125,
      "count": 48,
      "type": "SCALAR"
    },
    {
      "bufferView": 3,
      "byteOffset": 46896,
      "componentType": 5126,
      "count": 1896,
      "max": [
        0.06448196619749069,
        0.16045090556144714,
        0.013944979757070541
      ],
      "min": [
        -0.06448196619749069,
        -3.0964075208462874e-18,
        -0.02286195009946823
      ],
      "type": "VEC3"
    },
    {
      "bufferView": 3,
      "byteOffset": 69648,
      "componentType": 5126,
      "count": 1896,
      "max": [
        0.9999977946281433,
        1.0,
        1.0
      ],
      "min": [
        -0.9999974966049194,
        -1.0,
        -1.0
      ],
      "type": "VEC3"
    },
    {
      "bufferView": 4,
      "byteOffset": 31264,
      "componentType": 5126,
      "count": 1896,
      "max": [
        1.0,
        0.9999982714653015,
        1.0,
        1.0
      ],
      "min": [
        -1.0,
        -1.0,
        -1.0,
        -1.0
      ],
      "type": "VEC4"
    },
    {
      "bufferView": 2,
      "byteOffset": 15632,
      "componentType": 5126,
      "count": 1896,
      "max": [
        0.9953169822692871,
        0.9941949844360352
      ],
      "min": [
        0.005096971057355404,
        0.0026289818342775106
      ],
      "type": "VEC2"
    },
    {
      "bufferView": 1,
      "byteOffset": 21816,
      "componentType": 5125,
      "count": 4734,
      "type": "SCALAR"
    },
    {
      "bufferView": 3,
      "byteOffset": 92400,
      "componentType": 5126,
      "count": 142,
      "max": [
        0.007378994952887297,
        0.16550090909004211,
        0.00464999582618475
      ],
      "min": [
        -0.005662976764142513,
        0.16086000204086304,
        -0.004180966876447201
      ],
      "type": "VEC3"
    },
    {
      "bufferView": 3,
      "byteOffset": 94104,
      "componentType": 5126,
      "count": 142,
      "max": [
        0.8035781979560852,
        0.9976690411567688,
        0.8298103213310242
      ],
      "min": [
        -0.803581953048706,
        -0.9976690411567688,
        -0.8298103213310242
      ],
      "type": "VEC3"
    },
    {
      "bufferView": 2,
      "byteOffset": 30800,
      "componentType": 5126,
      "count": 142,
      "max": [
        0.9764789938926697,
        0.9699220061302185
      ],
      "min": [
        0.01694398932158947,
        0.017121970653533936
      ],
      "type": "VEC2"
    },
    {
      "bufferView": 1,
      "byteOffset": 40752,
      "componentType": 5125,
      "count": 354,
      "type": "SCALAR"
    },
    {
      "bufferView": 5,
      "componentType": 5126,
      "count": 139,
      "max": [
        100.0,
        6.123234262925839e-17,
        1.0,
        0.0,
        1.0,
        100.0,
        1.0,
        0.0,
        1.0097420801114616e-32,
        0.0,
        100.0,
        0.0,
        0.1547660380601883,
        0.00557899521663785,
        0.166326105594635,
        1.0
      ],
      "min": [
        -1.0,
        -6.123234262925839e-17,
        -1.0,
        0.0,
        -1.0,
        -6.123234924670329e-17,
        -1.0,
        0.0,
        -1.5146127160910092e-32,
        -1.0000004768371582,
        6.123232939436859e-17,
        0.0,
        -0.1727990210056305,
        -0.008740700781345367,
        -0.16632600128650665,
        1.0
      ],
      "type": "MAT4"
    },
    {
      "bufferView": 0,
      "componentType": 5123,
      "count": 1078,
      "type": "VEC4"
    },
    {
      "bufferView": 4,
      "byteOffset": 61600,
      "componentType": 5126,
      "count": 1078,
      "max": [
        1.0,
        0.5,
        0.20999999344348907,
        0.0899999737739563
      ],
      "min": [
        0.41999998688697815,
        0.0,
        0.0,
        0.0
      ],
      "type": "VEC4"
    },
    {
      "bufferView": 0,
      "byteOffset": 8624,
      "componentType": 5123,
      "count": 852,
      "type": "VEC4"
    },
    {
      "bufferView": 4,
      "byteOffset": 78848,
      "componentType": 5126,
      "count": 852,
      "max": [
        1.0,
        0.5,
        0.30000001192092896,
        0.14999999105930328
      ],
      "min": [
        0.3499999940395355,
        0.0,
        0.0,
        0.0
      ],
      "type": "VEC4"
    },
    {
      "bufferView": 0,
      "byteOffset": 15440,
      "componentType": 5123,
      "count": 24,
      "type": "VEC4"
    },
    {
      "bufferView": 4,
      "byteOffset": 92480,
      "componentType": 5126,
      "count": 24,
      "max": [
        1.0,
        0.0,
        0.0,
        0.0
      ],
      "min": [
        1.0,
        0.0,
        0.0,
        0.0
      ],
      "type": "VEC4"
    },
    {
      "bufferView": 0,
      "byteOffset": 15632,
      "componentType": 5123,
      "count": 1896,
      "type": "VEC4"
    },
    {
      "bufferView": 4,
      "byteOffset": 92864,
      "componentType": 5126,
      "count": 1896,
      "max": [
        1.0,
        0.5,
        0.30000001192092896,
        0.0
      ],
      "min": [
        0.3499999940395355,
        0.0,
        0.0,
        0.0
      ],
      "type": "VEC4"
    },
    {
      "bufferView": 0,
      "byteOffset": 30800,
      "componentType": 5123,
      "count": 142,
      "type": "VEC4"
    },
    {
      "bufferView": 4,
      "byteOffset": 123200,
      "componentType": 5126,
      "count": 142,
      "max": [
        1.0,
        0.44999998807907104,
        0.25,
        0.0
      ],
      "min": [
        0.4000000059604645,
        0.0,
        0.0,
        0.0
      ],
      "type": "VEC4"
    }
  ],
  "asset": {
    "extras": {
      "author": "雨宮レン (https://sketchfab.com/oscar3dmodel)",
      "license": "CC-BY-4.0 (http://creativecommons.org/licenses/by/4.0/)",
      "source": "https://sketchfab.com/3d-models/cloud-strife-097d40e0d6ad436d97e73b68b5e50c8c",
      "title": "Cloud Strife"
    },
    "generator": "Sketchfab-17.15.0",
    "version": "2.0"
  },
  "bufferViews": [
    {
      "buffer": 0,
      "byteLength": 31936,
      "byteStride": 8,
      "name": "shortBufferViews",
      "target": 34962
    },
    {
      "buffer": 0,
      "byteLength": 42168,
      "byteOffset": 31936,
      "name": "floatBufferViews",
      "target": 34963
    },
    {
      "buffer": 0,
      "byteLength": 31936,
      "byteOffset": 74104,
      "byteStride": 8,
      "name": "floatBufferViews",
      "target": 34962
    },
    {
      "buffer": 0,
      "byteLength": 95808,
      "byteOffset": 106040,
      "byteStride": 12,
      "name": "floatBufferViews",
      "target": 34962
    },
    {
      "buffer": 0,
      "byteLength": 125472,
      "byteOffset": 201848,
      "byteStride": 16,
      "name": "floatBufferViews",
      "target": 34962
    },
    {
      "buffer": 0,
      "byteLength": 8896,
      "byteOffset": 327320,
      "name": "floatBufferViews"
    }
  ],
  "buffers": [
    {
      "byteLength": 336216,
      "uri": "scene.bin"
    }
  ],
  "extensionsUsed": [
    "KHR_materials_specular"
  ],
  "images": [
    {
      "uri": "textures/ch_001_001_body1_D_baseColor.png"
    },
    {
      "uri": "textures/ch_001_001_body1_D_normal.png"
    },
    {
      "uri": "textures/ch_001_001_body_D_baseColor.png"
    },
    {
      "uri": "textures/ch_001_001_body_D_normal.png"
    },
    {
      "uri": "textures/ch_001_001_body2_D_baseColor.png"
    },
    {
      "uri": "textures/ch_001_001_body2_D_metallicRoughness.png"
    }
  ],
  "materials": [
    {
      "doubleSided": true,
      "extensions": {
        "KHR_materials_specular": {
          "specularColorFactor": [
            1.0,
            1.0,
            1.0
          ],
          "specularFactor": 0.0
        }
      },
      "name": "ch_001_001_body1_D",
      "normalTexture": {
        "index": 1
      },
      "pbrMetallicRoughness": {
        "baseColorTexture": {
          "index": 0
        },
        "metallicFactor": 0.0,
        "roughnessFactor": 0.0
      }
    },
    {
      "doubleSided": true,
      "extensions": {
        "KHR_materials_specular": {
          "specularColorFactor": [
            1.0,
            1.0,
            1.0
          ],
          "specularFactor": 0.0
        }
      },
      "name": "ch_001_001_body_D",
      "normalTexture": {
        "index": 3
      },
      "pbrMetallicRoughness": {
        "baseColorTexture": {
          "index": 2
        },
        "metallicFactor": 0.0,
        "roughnessFactor": 0.0
      }
    },
    {
      "alphaMode": "BLEND",
      "doubleSided": true,
      "extensions": {
        "KHR_materials_specular": {
          "specularColorFactor": [
            1.0,
            1.0,
            1.0
          ],
          "specularFactor": 0.0
        }
      },
      "name": "ch_001_001_body2_D",
      "pbrMetallicRoughness": {
        "baseColorTexture": {
          "index": 4
        },
        "metallicFactor": 0.0,
        "metallicRoughnessTexture": {
          "index": 5
        },
        "roughnessFactor": 0.0
      }
    }
  ],
  "meshes": [
    {
      "name": "_000_S_grid1_ch_001_001_body1_D_0",
      "primitives": [
        {
          "attributes": {
            "JOINTS_0": 25,
            "NORMAL": 1,
            "POSITION": 0,
            "TANGENT": 2,
            "TEXCOORD_0": 3,
            "WEIGHTS_0": 26
          },
          "indices": 4,
          "material": 0,
          "mode": 4
        }
      ]
    },
    {
      "name": "_001_S_body1_ch_001_001_body1_D_0",
      "primitives": [
        {
          "attributes": {
            "JOINTS_0": 27,
            "NORMAL": 6,
            "POSITION": 5,
            "TANGENT": 7,
            "TEXCOORD_0": 8,
            "WEIGHTS_0": 28
          },
          "indices": 9,
          "material": 0,
          "mode": 4
        }
      ]
    },
    {
      "name": "_002_S_grid1_ch_001_001_body_D_0",
      "primitives": [
        {
          "attributes": {
            "JOINTS_0": 29,
            "NORMAL": 11,
            "POSITION": 10,
            "TANGENT": 12,
            "TEXCOORD_0": 13,
            "WEIGHTS_0": 30
          },
          "indices": 14,
          "material": 1,
          "mode": 4
        }
      ]
    },
    {
      "name": "_003_S_body1_ch_001_001_body_D_0",
      "primitives": [
        {
          "attributes": {
            "JOINTS_0": 31,
            "NORMAL": 16,
            "POSITION": 15,
            "TANGENT": 17,
            "TEXCOORD_0": 18,
            "WEIGHTS_0": 32
          },
          "indices": 19,
          "material": 1,
          "mode": 4
        }
      ]
    },
    {
      "name": "_004_S_grid2_ch_001_001_body2_D_0",
      "primitives": [
        {
          "attributes": {
            "JOINTS_0": 33,
            "NORMAL": 21,
            "POSITION": 20,
            "TEXCOORD_0": 22,
            "WEIGHTS_0": 34
          },
          "indices": 23,
          "material": 2,
          "mode": 4
        }
      ]
    }
  ],
  "nodes": [
    {
      "children": [
        1
      ],
      "matrix": [
        1.0,
        0.0,
        0.0,
        0.0,
        0.0,
        2.220446049250313e-16,
        -1.0,
        0.0,
        0.0,
        1.0,
        2.220446049250313e-16,
        0.0,
        0.0,
        0.0,
        0.0,
        1.0
      ],
      "name": "Sketchfab_model"
    },
    {
      "children": [
        2
      ],
      "matrix": [
        0.009999999776482582,
        0.0,
        0.0,
        0.0,
        0.0,
        0.0,
        0.009999999776482582,
        0.0,
        0.0,
        -0.009999999776482582,
        0.0,
        0.0,
        0.0,
        0.0,
        0.0,
        1.0
      ],
      "name": "char001001.fbx"
    },
    {
      "children": [
        3
      ],
      "name": "RootNode"
    },
    {
      "children": [
        4
      ],
      "matrix": [
        100.0,
        0.0,
        0.0,
        0.0,
        0.0,
        -1.629206793918314e-05,
        -99.99999999999868,
        0.0,
        0.0,
        99.99999999999868,
        -1.629206793918314e-05,
        0.0,
        0.0,
        0.0,
        0.0,
        1.0
      ],
      "name": "Armature"
    },
    {
      "children": [
        5,
        145,
        147,
        149,
        151,
        153,
        144,
        146,
        148,
        150,
        152
      ],
      "name": "Object_4"
    },
    {
      "children": [
        6
      ],
      "name": "_rootJoint"
    },
    {
      "children": [
        7
      ],
      "name": "char001001_02",
      "rotation": [
        -1.3234889800848443e-23,
        -0.0,
        0.0,
        1.0
      ]
    },
    {
      "children": [
        8
      ],
      "name": "chr_all_03",
      "rotation": [
        -1.3234889800848443e-23,
        -0.0,
        0.0,
        1.0
      ]
    },
    {
      "children": [
        9
      ],
      "name": "skl_all_04",
      "rotation": [
        -1.3234889800848443e-23,
        -0.0,
        0.0,
        1.0
      ]
    },
    {
      "children": [
        10,
        124,
        131,
        133,
        135,
        137
      ],
      "name": "Hips_05",
      "translation": [
        0.0,
        -1.8044374883174896e-08,
        0.11048299819231033
      ]
    },
    {
      "children": [
        11
      ],
      "name": "Spine_06",
      "rotation": [
        -1.1156178659360344e-30,
        0.7071067690849304,
        1.1156177718964864e-30,
        0.7071068286895752
      ],
      "scale": [
        1.0,
        0.9999999403953552,
        1.0
      ],
      "translation": [
        0.0,
        8.463393896818161e-08,
        0.006905257701873779
      ]
    },
    {
      "children": [
        12,
        34,
        100,
        102
      ],
      "name": "Spine1_07",
      "rotation": [
        0.0,
        2.741774231301785e-24,
        0.0,
        1.0
      ],
      "translation": [
        -0.011387459933757782,
        0.0007115045445971191,
        -4.977613876633313e-10
      ]
    },
    {
      "children": [
        13,
        32
      ],
      "name": "LeftShoulder_08",
      "rotation": [
        2.023349178029192e-23,
        -0.562242329120636,
        2.976037718375064e-23,
        0.8269725441932678
      ],
      "translation": [
        -0.018369123339653015,
        0.003982728812843561,
        0.002130853710696101
      ]
    },
    {
      "children": [
        14,
        30
      ],
      "name": "LeftArm_09",
      "rotation": [
        4.391376061351416e-24,
        0.20297539234161377,
        -2.1184659239040346e-23,
        0.9791838526725769
      ],
      "translation": [
        0.014346551150083542,
        0.0024666227400302887,
        0.0024327347055077553
      ]
    },
    {
      "children": [
        15,
        28
      ],
      "name": "LeftForeArm_010",
      "rotation": [
        6.617445689285127e-24,
        8.940696716308594e-08,
        -6.617445689285127e-24,
        1.0
      ],
      "translation": [
        0.02864423394203186,
        -1.2898817658424377e-07,
        -1.862645149230957e-09
      ]
    },
    {
      "children": [
        16,
        20,
        24
      ],
      "name": "LeftHand_011",
      "rotation": [
        7.691393825904865e-30,
        5.811452865600586e-07,
        -1.3234889800848443e-23,
        1.0
      ],
      "translation": [
        0.024241775274276733,
        -0.0012698541395366192,
        5.960464477539063e-08
      ]
    },
    {
      "children": [
        17
      ],
      "name": "L_fing3C_012",
      "rotation": [
        8.630535166604314e-17,
        0.7625832557678223,
        -8.630535166604314e-17,
        0.6468901038169861
      ],
      "translation": [
        0.006218995898962021,
        0.0014010160230100155,
        0.0009189508855342865
      ]
    },
    {
      "children": [
        18
      ],
      "name": "L_fing3B_013",
      "rotation": [
        1.4189504581752683e-23,
        0.10678854584693909,
        -8.179494411262219e-24,
        0.9942817687988281
      ],
      "scale": [
        0.9999999403953552,
        1.0,
        0.9999999403953552
      ],
      "translation": [
        -5.4389238357543945e-05,
        -1.7996877431869507e-05,
        0.0029840804636478424
      ]
    },
    {
      "children": [
        19
      ],
      "name": "L_fing3A_014",
      "rotation": [
        -8.50553295592428e-17,
        -0.8273029327392578,
        -8.50553295592428e-17,
        0.5617560744285583
      ],
      "scale": [
        1.0000001192092896,
        1.0,
        1.0000001192092896
      ],
      "translation": [
        0.00010465085506439209,
        1.801503822207451e-05,
        0.0015499107539653778
      ]
    },
    {
      "name": "L_fing3A_end_089",
      "rotation": [
        7.638590032911724e-40,
        5.771553462415244e-17,
        -1.3234889800848443e-23,
        1.0
      ],
      "translation": [
        0.0,
        0.001553017646074295,
        0.0
      ]
    },
    {
      "children": [
        21
      ],
      "name": "L_fing1C_015",
      "rotation": [
        -8.200605727124162e-17,
        0.8967764377593994,
        -8.200605727124162e-17,
        -0.44248417019844055
      ],
      "translation": [
        0.0005979910492897034,
        -0.002168956445530057,
        -0.0015200413763523102
      ]
    },
    {
      "children": [
        22
      ],
      "name": "L_fing1B_016",
      "rotation": [
        -3.004153886925596e-17,
        0.9085001349449158,
        3.004153886925596e-17,
        -0.41788455843925476
      ],
      "scale": [
        1.0,
        0.9999995827674866,
        1.0
      ],
      "translation": [
        -0.002108491025865078,
        -0.0021780298557132483,
        -0.0012892382219433784
      ]
    },
    {
      "children": [
        23
      ],
      "name": "L_fing1A_017",
      "rotation": [
        8.996939120273863e-18,
        -0.776745617389679,
        -8.996939120273863e-18,
        0.6298144459724426
      ],
      "translation": [
        -0.00011950358748435974,
        -3.799388650804758e-05,
        0.0031646154820919037
      ]
    },
    {
      "name": "L_fing1A_end_090",
      "rotation": [
        1.3234889800848443e-23,
        5.771553462415244e-17,
        -7.638590032911724e-40,
        1.0
      ],
      "translation": [
        -1.3877787807814457e-17,
        0.0015530177624896169,
        1.3877787807814457e-17
      ]
    },
    {
      "children": [
        25
      ],
      "name": "L_fing2C_018",
      "rotation": [
        -6.655766937432884e-18,
        0.7593635320663452,
        -6.655766937432884e-18,
        0.6506665945053101
      ],
      "translation": [
        0.006303001195192337,
        -0.0026789705734699965,
        0.00062604621052742
      ]
    },
    {
      "children": [
        26
      ],
      "name": "L_fing2B_019",
      "rotation": [
        1.3612814127878104e-23,
        0.04948567599058151,
        -7.300028097911143e-24,
        0.9987748265266418
      ],
      "translation": [
        1.6279518604278564e-06,
        4.807952791452408e-07,
        0.003565307706594467
      ]
    },
    {
      "children": [
        27
      ],
      "name": "L_fing2A_020",
      "rotation": [
        1.0934283796017984e-17,
        -0.7907323837280273,
        -1.0934283796017984e-17,
        0.6121619939804077
      ],
      "scale": [
        0.9999998807907104,
        0.9999999403953552,
        0.9999998807907104
      ],
      "translation": [
        2.868473529815674e-07,
        1.3550743460655212e-07,
        0.00176948681473732
      ]
    },
    {
      "name": "L_fing2A_end_091",
      "rotation": [
        -6.617444900424222e-24,
        8.546968748912776e-17,
        5.6559068487231834e-40,
        1.0
      ],
      "translation": [
        -6.938893903907228e-18,
        0.0015530178789049387,
        0.0
      ]
    },
    {
      "children": [
        29
      ],
      "name": "LeftForeArmRoll_021",
      "rotation": [
        1.7749366605890843e-30,
        1.341104365337742e-07,
        -1.3234888223126632e-23,
        1.0
      ],
      "scale": [
        1.0000001192092896,
        1.0,
        1.0000001192092896
      ],
      "translation": [
        0.01134539395570755,
        -0.0005945940501987934,
        7.450580596923828e-09
      ]
    },
    {
      "name": "LeftForeArmRoll_end_092",
      "rotation": [
        6.617444900424222e-24,
        8.547111023978136e-17,
        -6.617444900424222e-24,
        1.0
      ],
      "translation": [
        0.0,
        0.001553017646074295,
        0.0
      ]
    },
    {
      "children": [
        31
      ],
      "name": "LeftArmRoll_022",
      "rotation": [
        6.617445689285127e-24,
        8.940696716308594e-08,
        -6.617445689285127e-24,
        1.0
      ],
      "translation": [
        0.012545011937618256,
        -9.313225746154785e-10,
        1.0617077350616455e-07
      ]
    },
    {
      "name": "LeftArmRoll_end_093",
      "rotation": [
        2.917503402724269e-41,
        2.204384426870381e-18,
        -1.3234889800848443e-23,
        1.0
      ],
      "translation": [
        0.0,
        0.001553017646074295,
        0.0
      ]
    },
    {
      "children": [
        33
      ],
      "name": "leftshoulder_guard_023",
      "rotation": [
        -5.630055907136443e-25,
        -0.08388173580169678,
        -6.688243588945997e-24,
        0.9964758157730103
      ],
      "scale": [
        0.9999999403953552,
        1.0,
        0.9999999403953552
      ],
      "translation": [
        0.008598068729043007,
        0.0025776457041502,
        0.007628740277141333
      ]
    },
    {
      "name": "leftshoulder_guard_end_094",
      "rotation": [
        -1.3234889800848443e-23,
        3.873472403371055e-17,
        3.308722450212111e-24,
        1.0
      ],
      "translation": [
        6.938893903907228e-18,
        0.0015530181117355824,
        0.0
      ]
    },
    {
      "children": [
        35
      ],
      "name": "Neck_024",
      "rotation": [
        -7.888609052210118e-31,
        1.7763568394002505e-15,
        2.6469779601696886e-23,
        1.0
      ],
      "translation": [
        -0.02249053120613098,
        0.006101945415139198,
        -9.830922742537496e-10
      ]
    },
    {
      "children": [
        36,
        80,
        82,
        84,
        86,
        88,
        90,
        92,
        94,
        96,
        98
      ],
      "name": "Head_025",
      "rotation": [
        -6.123233601181349e-17,
        1.0,
        -6.123233601181349e-17,
        7.549790126404332e-08
      ],
      "translation": [
        -0.008487746119499207,
        -0.001403560396283865,
        -3.7101122174476586e-10
      ]
    },
    {
      "children": [
        37,
        44,
        46,
        48,
        50,
        52,
        54,
        56,
        58,
        60,
        62,
        64,
        66,
        68,
        70,
        72,
        74,
        76,
        78
      ],
      "name": "hi_face_026",
      "rotation": [
        -9.358480955133946e-24,
        0.7071067690849304,
        9.35848016627304e-24,
        0.7071068286895752
      ]
    },
    {
      "children": [
        38,
        40,
        42
      ],
      "name": "hi_chin_027",
      "rotation": [
        -1.3234889800848443e-23,
        -2.781813890351259e-08,
        1.856449162841205e-29,
        1.0
      ],
      "translation": [
        -5.040678985324121e-11,
        -0.003420999739319086,
        0.0009060055017471313
      ]
    },
    {
      "children": [
        39
      ],
      "name": "hi_underlip_R1_028",
      "rotation": [
        -6.123234262925839e-17,
        1.0,
        -6.123234262925839e-17,
        -7.549790126404332e-08
      ],
      "translation": [
        -0.0013239963445812464,
        -0.006016967352479696,
        -0.002459004521369934
      ]
    },
    {
      "name": "hi_underlip_R1_end_095",
      "rotation": [
        -2.6469779601696886e-23,
        -2.7106455827665375e-24,
        -3.1554436208840472e-30,
        1.0
      ],
      "translation": [
        0.0,
        0.0015530178789049387,
        0.0
      ]
    },
    {
      "children": [
        41
      ],
      "name": "hi_tongue_029",
      "rotation": [
        -2.6469782757140506e-23,
        1.8275586345187683e-23,
        0.0,
        1.0
      ],
      "scale": [
        1.0,
        0.9999999403953552,
        1.0
      ],
      "translation": [
        -6.617444900424222e-24,
        -0.0007059868657961488,
        -0.0021139979362487793
      ]
    },
    {
      "name": "hi_tongue_end_096",
      "rotation": [
        -0.0,
        4.474536436916276e-23,
        6.310887241768095e-30,
        1.0
      ],
      "translation": [
        6.617444900424222e-24,
        0.0015530178789049387,
        0.0
      ]
    },
    {
      "children": [
        43
      ],
      "name": "hi_underlip_L1_030",
      "rotation": [
        -1.3234889800848443e-23,
        1.8275586345187683e-23,
        0.0,
        1.0
      ],
      "translation": [
        0.0013239969266578555,
        -0.006016967352479696,
        -0.002459004521369934
      ]
    },
    {
      "name": "hi_underlip_L1_end_097",
      "rotation": [
        -2.6469779601696886e-23,
        1.8275586345187683e-23,
        6.310887241768095e-30,
        1.0
      ],
      "translation": [
        0.0,
        0.0015530178789049387,
        0.0
      ]
    },
    {
      "children": [
        45
      ],
      "name": "hi_upperlip_L1_031",
      "rotation": [
        -1.3234889800848443e-23,
        -2.781813890351259e-08,
        1.856449162841205e-29,
        1.0
      ],
      "translation": [
        0.0011059640673920512,
        -0.009794928133487701,
        -0.0011599956778809428
      ]
    },
    {
      "name": "hi_upperlip_L1_end_098",
      "rotation": [
        -1.3234889800848443e-23,
        1.8275586345187683e-23,
        0.0,
        1.0
      ],
      "translation": [
        -2.168404344971009e-19,
        0.0015530178789049387,
        0.0
      ]
    },
    {
      "children": [
        47
      ],
      "name": "hi_upperlip_R2_032",
      "rotation": [
        -6.123234262925839e-17,
        1.0,
        -6.123234262925839e-17,
        -7.549790126404332e-08
      ],
      "translation": [
        -0.0019869792740792036,
        -0.009009935893118382,
        -0.0015719981165602803
      ]
    },
    {
      "name": "hi_upperlip_R2_end_099",
      "rotation": [
        0.0,
        -5.483501130949257e-24,
        1.5777218104420236e-30,
        1.0
      ],
      "translation": [
        0.0,
        0.0015530178789049387,
        2.7755575615628914e-17
      ]
    },
    {
      "children": [
        49
      ],
      "name": "hi_brow_L_033",
      "rotation": [
        -1.3234889800848443e-23,
        -2.781813890351259e-08,
        1.856449162841205e-29,
        1.0
      ],
      "translation": [
        0.0033979404252022505,
        -0.0024929915089160204,
        0.00657200813293457
      ]
    },
    {
      "name": "hi_brow_L_end_0100",
      "rotation": [
        -1.3234889800848443e-23,
        1.8275586345187683e-23,
        0.0,
        1.0
      ],
      "translation": [
        0.0,
        0.0015530178789049387,
        0.0
      ]
    },
    {
      "children": [
        51
      ],
      "name": "hi_cheek_L1_034",
      "rotation": [
        -1.3234889800848443e-23,
        -2.781813890351259e-08,
        1.856449162841205e-29,
        1.0
      ],
      "translation": [
        0.003793953685089946,
        -0.00842595100402832,
        0.0025190117303282022
      ]
    },
    {
      "name": "hi_cheek_L1_end_0101",
      "rotation": [
        -1.3234889800848443e-23,
        1.8275586345187683e-23,
        0.0,
        1.0
      ],
      "translation": [
        -4.336808689942018e-19,
        0.0015530178789049387,
        0.0
      ]
    },
    {
      "children": [
        53
      ],
      "name": "hi_uppereyelid_R_035",
      "rotation": [
        6.200017137849952e-17,
        0.9999203681945801,
        -6.200017137849952e-17,
        0.012619235552847385
      ],
      "scale": [
        1.0,
        0.9999999403953552,
        1.0
      ],
      "translation": [
        -0.0032822934444993734,
        -0.004937782883644104,
        0.005148783326148987
      ]
    },
    {
      "name": "hi_uppereyelid_R_end_0102",
      "rotation": [
        0.0,
        1.7114486814910963e-18,
        0.0,
        1.0
      ],
      "translation": [
        0.0,
        0.0015530178789049387,
        -2.7755575615628914e-17
      ]
    },
    {
      "children": [
        55
      ],
      "name": "hi_upperlip_L2_036",
      "rotation": [
        -1.3234889800848443e-23,
        -2.781813890351259e-08,
        1.856449162841205e-29,
        1.0
      ],
      "translation": [
        0.0019869799725711346,
        -0.009009934961795807,
        -0.0015719978837296367
      ]
    },
    {
      "name": "hi_upperlip_L2_end_0103",
      "rotation": [
        -1.3234889800848443e-23,
        1.8275586345187683e-23,
        0.0,
        1.0
      ],
      "translation": [
        0.0,
        0.0015530178789049387,
        0.0
      ]
    },
    {
      "children": [
        57
      ],
      "name": "hi_upperlip_R1_037",
      "rotation": [
        -6.123234262925839e-17,
        1.0,
        -6.123234262925839e-17,
        -7.549790126404332e-08
      ],
      "translation": [
        -0.0011059630196541548,
        -0.009794928133487701,
        -0.0011599959107115865
      ]
    },
    {
      "name": "hi_upperlip_R1_end_0104",
      "rotation": [
        0.0,
        -5.483501130949257e-24,
        1.5777218104420236e-30,
        1.0
      ],
      "translation": [
        0.0,
        0.0015530178789049387,
        0.0
      ]
    },
    {
      "children": [
        59
      ],
      "name": "hi_undereyelid_R_038",
      "rotation": [
        -6.123234262925839e-17,
        1.0,
        -6.123234262925839e-17,
        -7.549790126404332e-08
      ],
      "translation": [
        -0.0032819502521306276,
        -0.004937983117997646,
        0.0051490068435668945
      ]
    },
    {
      "name": "hi_undereyelid_R_end_0105",
      "rotation": [
        0.0,
        -5.483501130949257e-24,
        1.5777218104420236e-30,
        1.0
      ],
      "translation": [
        0.0,
        0.0015530179953202605,
        2.7755575615628914e-17
      ]
    },
    {
      "children": [
        61
      ],
      "name": "hi_undereyelid_L_039",
      "rotation": [
        -1.3234889800848443e-23,
        -2.781813890351259e-08,
        1.856449162841205e-29,
        1.0
      ],
      "translation": [
        0.0032819497864693403,
        -0.004937983117997646,
        0.0051490068435668945
      ]
    },
    {
      "name": "hi_undereyelid_L_end_0106",
      "rotation": [
        -1.3234889800848443e-23,
        1.8275586345187683e-23,
        0.0,
        1.0
      ],
      "translation": [
        0.0,
        0.0015530178789049387,
        0.0
      ]
    },
    {
      "children": [
        63
      ],
      "name": "hi_eye_L_040",
      "rotation": [
        -1.3234889800848443e-23,
        3.048499820579309e-05,
        1.2112591347049258e-27,
        1.0
      ],
      "translation": [
        0.003292616456747055,
        -0.007856274023652077,
        0.005146905779838562
      ]
    },
    {
      "name": "hi_eye_L_end_0107",
      "rotation": [
        -1.3234889800848443e-23,
        2.1726740913498813e-21,
        -8.077935669463161e-28,
        1.0
      ],
      "translation": [
        0.0,
        0.0015530178789049387,
        -2.7755575615628914e-17
      ]
    },
    {
      "children": [
        65
      ],
      "name": "hi_brow_R_041",
      "rotation": [
        -6.123234262925839e-17,
        1.0,
        -6.123234262925839e-17,
        -7.549790126404332e-08
      ],
      "translation": [
        -0.0033979418221861124,
        -0.002492992440238595,
        0.006572112441062927
      ]
    },
    {
      "name": "hi_brow_R_end_0108",
      "rotation": [
        0.0,
        -5.483501130949257e-24,
        1.5777218104420236e-30,
        1.0
      ],
      "translation": [
        -4.336808689942018e-19,
        0.001553017646074295,
        2.7755575615628914e-17
      ]
    },
    {
      "children": [
        67
      ],
      "name": "hi_cheek_R2_042",
      "rotation": [
        -6.123234262925839e-17,
        1.0,
        -6.123234262925839e-17,
        -7.549790126404332e-08
      ],
      "translation": [
        -0.0038479554932564497,
        -0.007772922515869141,
        -0.0003689976583700627
      ]
    },
    {
      "name": "hi_cheek_R2_end_0109",
      "rotation": [
        0.0,
        -5.483501130949257e-24,
        1.5777218104420236e-30,
        1.0
      ],
      "translation": [
        0.0,
        0.0015530178789049387,
        -2.7755575615628914e-17
      ]
    },
    {
      "children": [
        69
      ],
      "name": "hi_uppereyelid_L_043",
      "rotation": [
        -1.323805313307838e-23,
        0.012619673274457455,
        1.6707320856935577e-25,
        0.9999203681945801
      ],
      "translation": [
        0.003282292513176799,
        -0.00493793748319149,
        0.005148857831954956
      ]
    },
    {
      "name": "hi_uppereyelid_L_end_0110",
      "rotation": [
        -1.3234889800848443e-23,
        2.687131762795456e-20,
        4.1359030627651384e-25,
        1.0
      ],
      "translation": [
        2.168404344971009e-19,
        0.0015530178789049387,
        2.7755575615628914e-17
      ]
    },
    {
      "children": [
        71
      ],
      "name": "hi_cheek_R1_044",
      "rotation": [
        -6.123234262925839e-17,
        1.0,
        -6.123234262925839e-17,
        -7.549790126404332e-08
      ],
      "translation": [
        -0.003793953685089946,
        -0.008425951935350895,
        0.002519011264666915
      ]
    },
    {
      "name": "hi_cheek_R1_end_00",
      "rotation": [
        0.0,
        -5.483501130949257e-24,
        1.5777218104420236e-30,
        1.0
      ],
      "translation": [
        0.0,
        0.0015530178789049387,
        0.0
      ]
    },
    {
      "children": [
        73
      ],
      "name": "hi_nose_045",
      "rotation": [
        -1.3234889800848443e-23,
        -2.781813890351259e-08,
        1.856449162841205e-29,
        1.0
      ],
      "translation": [
        -7.905942567276725e-11,
        -0.010634958744049072,
        0.0014210045337677002
      ]
    },
    {
      "name": "hi_nose_end_01",
      "rotation": [
        -1.3234889800848443e-23,
        1.8275586345187683e-23,
        0.0,
        1.0
      ],
      "translation": [
        -6.617444900424222e-24,
        0.0015530178789049387,
        0.0
      ]
    },
    {
      "children": [
        75
      ],
      "name": "hi_eye_R_046",
      "rotation": [
        -6.123050297957607e-17,
        1.0,
        -6.123050297957607e-17,
        2.9997028832440265e-05
      ],
      "translation": [
        -0.003293457208201289,
        -0.007856451906263828,
        0.005146890878677368
      ]
    },
    {
      "name": "hi_eye_R_end_0111",
      "rotation": [
        -1.3234889800848443e-23,
        -4.0125218850401085e-21,
        8.077935669463161e-28,
        1.0
      ],
      "translation": [
        0.0,
        0.0015530178789049387,
        2.7755575615628914e-17
      ]
    },
    {
      "children": [
        77
      ],
      "name": "hi_cheek_L2_047",
      "rotation": [
        -1.3234889800848443e-23,
        -2.781813890351259e-08,
        1.856449162841205e-29,
        1.0
      ],
      "translation": [
        0.003847955958917737,
        -0.007772921584546566,
        -0.0003689972509164363
      ]
    },
    {
      "name": "hi_cheek_L2_end_0112",
      "rotation": [
        -1.3234889800848443e-23,
        1.8275586345187683e-23,
        0.0,
        1.0
      ],
      "translation": [
        0.0,
        0.0015530178789049387,
        2.7755575615628914e-17
      ]
    },
    {
      "children": [
        79
      ],
      "name": "hi_miken_048",
      "rotation": [
        -1.3234889800848443e-23,
        -2.781813890351259e-08,
        1.856449162841205e-29,
        1.0
      ],
      "translation": [
        -3.6564173910846876e-10,
        -0.0024929915089160204,
        0.00657200813293457
      ]
    },
    {
      "name": "hi_miken_end_0113",
      "rotation": [
        -1.3234889800848443e-23,
        1.8275586345187683e-23,
        0.0,
        1.0
      ],
      "translation": [
        -6.617444900424222e-24,
        0.0015530178789049387,
        0.0
      ]
    },
    {
      "children": [
        81
      ],
      "name": "C_hair1_049",
      "rotation": [
        -4.206909493881018e-31,
        3.1786509424591713e-08,
        1.3234889800848443e-23,
        1.0
      ],
      "translation": [
        0.011104002594947815,
        -0.010988950729370117,
        -5.701358895748854e-05
      ]
    },
    {
      "name": "C_hair1_end_0114",
      "rotation": [
        0.0,
        -8.308130803632989e-24,
        2.6469779601696886e-23,
        1.0
      ],
      "translation": [
        -2.7755575615628914e-17,
        0.001553017646074295,
        6.776263578034403e-21
      ]
    },
    {
      "children": [
        83
      ],
      "name": "FR_hair2_050",
      "rotation": [
        -4.206909023683277e-31,
        3.1786505871878035e-08,
        1.3234889800848443e-23,
        1.0
      ],
      "translation": [
        0.006262005306780338,
        -0.0071239471435546875,
        0.006868957541882992
      ]
    },
    {
      "name": "FR_hair2_end_0115",
      "rotation": [
        -3.1554436208840472e-30,
        -8.308036140324362e-24,
        2.6469779601696886e-23,
        1.0
      ],
      "translation": [
        0.0,
        0.0015530178789049387,
        0.0
      ]
    },
    {
      "children": [
        85
      ],
      "name": "FR_hair3_051",
      "rotation": [
        -4.206909023683277e-31,
        3.1786505871878035e-08,
        1.3234889800848443e-23,
        1.0
      ],
      "translation": [
        0.0036830015014857054,
        -0.0031620264053344727,
        0.00617897417396307
      ]
    },
    {
      "name": "FR_hair3_end_0116",
      "rotation": [
        -3.1554436208840472e-30,
        -8.308036140324362e-24,
        2.6469779601696886e-23,
        1.0
      ],
      "translation": [
        0.0,
        0.0015530178789049387,
        0.0
      ]
    },
    {
      "children": [
        87
      ],
      "name": "C_hair2_052",
      "rotation": [
        -4.206909493881018e-31,
        3.1786509424591713e-08,
        1.3234889800848443e-23,
        1.0
      ],
      "translation": [
        0.010217010974884033,
        -0.004689981695264578,
        -1.0961259677699786e-09
      ]
    },
    {
      "name": "C_hair2_end_0117",
      "rotation": [
        0.0,
        -8.308130803632989e-24,
        2.6469779601696886e-23,
        1.0
      ],
      "translation": [
        -2.7755575615628914e-17,
        0.0015530178789049387,
        3.308722450212111e-24
      ]
    },
    {
      "children": [
        89
      ],
      "name": "FR_hair1_053",
      "rotation": [
        -4.206909493881018e-31,
        3.1786509424591713e-08,
        1.3234889800848443e-23,
        1.0
      ],
      "translation": [
        0.013045012950897217,
        -0.009044944308698177,
        0.0009439855930395424
      ]
    },
    {
      "name": "FR_hair1_end_0118",
      "rotation": [
        0.0,
        -8.308130803632989e-24,
        2.6469779601696886e-23,
        1.0
      ],
      "translation": [
        0.0,
        0.0015530178789049387,
        1.0842021724855044e-19
      ]
    },
    {
      "children": [
        91
      ],
      "name": "R_hair1_054",
      "rotation": [
        -4.206909493881018e-31,
        3.1786509424591713e-08,
        1.3234889800848443e-23,
        1.0
      ],
      "translation": [
        0.010130004025995731,
        -0.0014709830284118652,
        0.007531939074397087
      ]
    },
    {
      "name": "R_hair1_end_0119",
      "rotation": [
        0.0,
        -8.308130803632989e-24,
        2.6469779601696886e-23,
        1.0
      ],
      "translation": [
        -2.7755575615628914e-17,
        0.001553017646074295,
        0.0
      ]
    },
    {
      "children": [
        93
      ],
      "name": "L_hair2_055",
      "rotation": [
        -4.206909493881018e-31,
        3.1786509424591713e-08,
        1.3234889800848443e-23,
        1.0
      ],
      "translation": [
        0.012040003202855587,
        -0.006749927531927824,
        -0.006281972397118807
      ]
    },
    {
      "name": "L_hair2_end_0120",
      "rotation": [
        0.0,
        -8.308130803632989e-24,
        2.6469779601696886e-23,
        1.0
      ],
      "translation": [
        0.0,
        0.0015530178789049387,
        -8.673617379884035e-19
      ]
    },
    {
      "children": [
        95
      ],
      "name": "C_hair3_056",
      "rotation": [
        -4.206909493881018e-31,
        3.1786509424591713e-08,
        1.3234889800848443e-23,
        1.0
      ],
      "translation": [
        0.0076570063829422,
        0.0030760173685848713,
        -8.214762758917971e-10
      ]
    },
    {
      "name": "C_hair3_end_0121",
      "rotation": [
        0.0,
        -8.308130803632989e-24,
        2.6469779601696886e-23,
        1.0
      ],
      "translation": [
        -2.7755575615628914e-17,
        0.001553017646074295,
        0.0
      ]
    },
    {
      "children": [
        97
      ],
      "name": "B_hair2_057",
      "rotation": [
        -4.206909023683277e-31,
        3.1786505871878035e-08,
        1.3234889800848443e-23,
        1.0
      ],
      "translation": [
        -0.0010849982500076294,
        0.0013380064629018307,
        -5.701138434233144e-05
      ]
    },
    {
      "name": "B_hair2_end_0122",
      "rotation": [
        -3.1554436208840472e-30,
        -8.308036140324362e-24,
        2.6469779601696886e-23,
        1.0
      ],
      "translation": [
        0.0,
        0.0015530181117355824,
        -6.776263578034403e-21
      ]
    },
    {
      "children": [
        99
      ],
      "name": "FL_hair1_058",
      "rotation": [
        -4.206909493881018e-31,
        3.1786509424591713e-08,
        1.3234889800848443e-23,
        1.0
      ],
      "translation": [
        0.007109000813215971,
        -0.0077789416536688805,
        -0.006034970749169588
      ]
    },
    {
      "name": "FL_hair1_end_0123",
      "rotation": [
        0.0,
        -8.308130803632989e-24,
        2.6469779601696886e-23,
        1.0
      ],
      "translation": [
        0.0,
        0.0015530178789049387,
        0.0
      ]
    },
    {
      "children": [
        101
      ],
      "name": "hi_necklace_059",
      "rotation": [
        -7.888609052210118e-31,
        -3.875670866337663e-24,
        2.6469779601696886e-23,
        1.0
      ],
      "translation": [
        -0.0259903222322464,
        0.005243668798357248,
        -1.1360730134413188e-09
      ]
    },
    {
      "name": "hi_necklace_end_0124",
      "rotation": [
        0.0,
        -3.875670866337663e-24,
        0.0,
        1.0
      ],
      "translation": [
        -2.7755575615628914e-17,
        0.001553017646074295,
        0.0
      ]
    },
    {
      "children": [
        103,
        122
      ],
      "name": "RightShoulder_060",
      "rotation": [
        -3.0350268436013186e-23,
        0.5622423887252808,
        4.4640594174618545e-23,
        0.826972484588623
      ],
      "scale": [
        0.9999999403953552,
        1.0,
        0.9999999403953552
      ],
      "translation": [
        -0.01836910843849182,
        0.003982744179666042,
        -0.002130894223228097
      ]
    },
    {
      "children": [
        104,
        120
      ],
      "name": "RightArm_061",
      "rotation": [
        -1.7050597377627993e-23,
        -0.2029719054698944,
        -1.7050597377627993e-23,
        0.9791845679283142
      ],
      "translation": [
        0.014346454292535782,
        0.0024665980599820614,
        -0.0024321042001247406
      ]
    },
    {
      "children": [
        105,
        118
      ],
      "name": "RightForeArm_062",
      "rotation": [
        6.6174417449806005e-24,
        -5.066394805908203e-07,
        -6.6174417449806005e-24,
        1.0
      ],
      "translation": [
        0.028644153848290443,
        -4.330649971961975e-08,
        1.1175870895385742e-08
      ]
    },
    {
      "children": [
        106,
        110,
        114
      ],
      "name": "RightHand_063",
      "rotation": [
        -1.323495290972086e-23,
        -3.203749656677246e-06,
        -1.9852377299761546e-23,
        1.0
      ],
      "translation": [
        0.024241823703050613,
        -0.0012696590274572372,
        -3.725290298461914e-09
      ]
    },
    {
      "children": [
        107
      ],
      "name": "R_fing1C_064",
      "rotation": [
        -1.2875385868993758e-25,
        -0.44247210025787354,
        1.4694669017350873e-23,
        0.8967822790145874
      ],
      "scale": [
        1.0000001192092896,
        1.0,
        1.0000001192092896
      ],
      "translation": [
        0.0005979649722576141,
        -0.0021689722780138254,
        0.00151902437210083
      ]
    },
    {
      "children": [
        108
      ],
      "name": "R_fing1B_065",
      "rotation": [
        3.002781097981003e-17,
        0.9084295034408569,
        3.002781097981003e-17,
        0.41803812980651855
      ],
      "translation": [
        0.002108559012413025,
        -0.00217802613042295,
        -0.00128922238945961
      ]
    },
    {
      "children": [
        109
      ],
      "name": "R_fing1A_066",
      "rotation": [
        9.01034854518396e-18,
        0.7768436670303345,
        9.01034854518396e-18,
        0.6296935081481934
      ],
      "scale": [
        1.0,
        0.9999999403953552,
        1.0
      ],
      "translation": [
        0.0001196637749671936,
        -3.7967460229992867e-05,
        0.003164762631058693
      ]
    },
    {
      "name": "R_fing1A_end_0125",
      "rotation": [
        -1.3234889800848443e-23,
        -2.204384426870381e-18,
        -6.617444900424222e-24,
        1.0
      ],
      "translation": [
        0.0,
        0.0015530179953202605,
        -1.3877787807814457e-17
      ]
    },
    {
      "children": [
        111
      ],
      "name": "R_fing3C_067",
      "rotation": [
        2.143406708055683e-23,
        0.64662104845047,
        -3.55194057352187e-23,
        0.7628114223480225
      ],
      "translation": [
        0.0062179602682590485,
        0.001402085181325674,
        -0.0009200721979141235
      ]
    },
    {
      "children": [
        112
      ],
      "name": "R_fing3B_068",
      "rotation": [
        0.0,
        -0.10724705457687378,
        0.0,
        0.9942324161529541
      ],
      "translation": [
        5.562976002693176e-05,
        -1.8495600670576096e-05,
        0.0029853470623493195
      ]
    },
    {
      "children": [
        113
      ],
      "name": "R_fing3A_069",
      "rotation": [
        1.6315240918824463e-17,
        0.827667236328125,
        1.6315240918824463e-17,
        0.5612191557884216
      ],
      "translation": [
        -0.0001023411750793457,
        1.762574538588524e-05,
        0.0015495344996452332
      ]
    },
    {
      "name": "R_fing3A_end_0126",
      "rotation": [
        1.3234889800848443e-23,
        -2.9958509788090336e-17,
        3.96497400480707e-40,
        1.0
      ],
      "translation": [
        3.469446951953614e-18,
        0.001553017646074295,
        0.0
      ]
    },
    {
      "children": [
        115
      ],
      "name": "R_fing2C_070",
      "rotation": [
        5.151214063894532e-23,
        0.6506844758987427,
        -7.02845973361737e-23,
        0.7593482136726379
      ],
      "translation": [
        0.006302975118160248,
        -0.0026789724361151457,
        -0.0006259866058826447
      ]
    },
    {
      "children": [
        116
      ],
      "name": "R_fing2B_071",
      "rotation": [
        1.3612148329274098e-23,
        -0.04940905421972275,
        7.298923692643833e-24,
        0.9987786412239075
      ],
      "scale": [
        0.9999999403953552,
        0.9999999403953552,
        0.9999999403953552
      ],
      "translation": [
        -1.6391277313232422e-06,
        6.039626896381378e-07,
        0.003565441817045212
      ]
    },
    {
      "children": [
        117
      ],
      "name": "R_fing2A_072",
      "rotation": [
        1.0897366725279742e-17,
        0.790469229221344,
        1.0897366725279742e-17,
        0.6125017404556274
      ],
      "translation": [
        2.7194619178771973e-07,
        -1.0873191058635712e-07,
        0.0017690323293209076
      ]
    },
    {
      "name": "R_fing2A_end_0127",
      "rotation": [
        -6.617444900424222e-24,
        2.555264144316749e-17,
        -6.617444900424222e-24,
        1.0
      ],
      "translation": [
        -3.469446951953614e-18,
        0.0015530181117355824,
        0.0
      ]
    },
    {
      "children": [
        119
      ],
      "name": "RightForeArmRoll_073",
      "rotation": [
        -1.3234891378570253e-23,
        -8.940696716308594e-08,
        -1.3234891378570253e-23,
        1.0
      ],
      "translation": [
        0.011345438659191132,
        -0.0005945488810539246,
        3.725290298461914e-09
      ]
    },
    {
      "name": "RightForeArmRoll_end_0128",
      "rotation": [
        -6.617444900424222e-24,
        -2.2043838064849216e-18,
        -1.4587517013621346e-41,
        1.0
      ],
      "translation": [
        0.0,
        0.0015530181117355824,
        -1.3877787807814457e-17
      ]
    },
    {
      "children": [
        121
      ],
      "name": "RightArmRoll_074",
      "rotation": [
        1.9852334701272664e-23,
        -8.54718910982796e-17,
        -6.617444111563316e-24,
        1.0
      ],
      "scale": [
        1.0000001192092896,
        1.0,
        1.0000001192092896
      ],
      "translation": [
        0.012544998899102211,
        8.335337042808533e-08,
        -3.725290298461914e-09
      ]
    },
    {
      "name": "RightArmRoll_end_0129",
      "rotation": [
        -6.617444900424222e-24,
        5.330676783836321e-17,
        3.527544676183435e-40,
        1.0
      ],
      "translation": [
        0.0,
        0.0015530181117355824,
        0.0
      ]
    },
    {
      "children": [
        123
      ],
      "name": "rightshoulder_guard_075",
      "rotation": [
        -1.2813481883001189e-23,
        0.0838811993598938,
        -5.562238915621176e-24,
        0.996475875377655
      ],
      "scale": [
        0.9999999403953552,
        1.0,
        0.9999999403953552
      ],
      "translation": [
        0.008598016574978828,
        0.0025766142643988132,
        -0.007628750056028366
      ]
    },
    {
      "name": "rightshoulder_guard_end_0130",
      "rotation": [
        -2.6469779601696886e-23,
        -2.4869074274204695e-17,
        -6.617444900424222e-24,
        1.0
      ],
      "translation": [
        3.469446951953614e-18,
        0.0015530181117355824,
        0.0
      ]
    },
    {
      "children": [
        125,
        129
      ],
      "name": "LeftUpLeg_076",
      "rotation": [
        -1.1156178659360344e-30,
        0.7071067690849304,
        1.1156177718964864e-30,
        0.7071068286895752
      ],
      "scale": [
        1.0,
        0.9999999403953552,
        1.0
      ],
      "translation": [
        0.009029984474182129,
        0.001045520999468863,
        -0.007973745465278625
      ]
    },
    {
      "children": [
        126
      ],
      "name": "LeftLeg_077",
      "rotation": [
        0.0,
        5.960465898624534e-08,
        0.0,
        1.0
      ],
      "translation": [
        0.04650367051362991,
        0.0031327554024755955,
        4.071176284980993e-09
      ]
    },
    {
      "children": [
        127
      ],
      "name": "LeftFoot_078",
      "rotation": [
        -7.888607171419157e-31,
        -5.960465898624534e-08,
        1.3234889800848443e-23,
        1.0
      ],
      "translation": [
        0.04736003279685974,
        0.004562443122267723,
        5.110718959144833e-09
      ]
    },
    {
      "children": [
        128
      ],
      "name": "LeftToeBase_079",
      "rotation": [
        -2.3665827156630354e-30,
        -3.552713678800501e-15,
        -1.3234889800848443e-23,
        1.0
      ],
      "translation": [
        0.0035725990310311317,
        -0.009723702445626259,
        -2.217457190090144e-10
      ]
    },
    {
      "name": "LeftToeBase_end_0131",
      "rotation": [
        -7.888609052210118e-31,
        2.741868500179959e-24,
        0.0,
        1.0
      ],
      "translation": [
        -1.734723475976807e-18,
        0.0015530178789049387,
        0.0
      ]
    },
    {
      "children": [
        130
      ],
      "name": "LeftUpLegRoll_080",
      "rotation": [
        0.0,
        2.741774231301785e-24,
        0.0,
        1.0
      ],
      "translation": [
        0.02061723917722702,
        0.0013892793795093894,
        1.456768039531653e-10
      ]
    },
    {
      "name": "LeftUpLegRoll_end_0132",
      "rotation": [
        -7.888609052210118e-31,
        -3.875670866337663e-24,
        2.6469779601696886e-23,
        1.0
      ],
      "translation": [
        0.0,
        0.0015530178789049387,
        0.0
      ]
    },
    {
      "children": [
        132
      ],
      "name": "Skirt1B_081",
      "rotation": [
        -6.475704266240283e-23,
        0.5771453380584717,
        4.576577172728424e-23,
        0.8166414499282837
      ],
      "translation": [
        -0.0005776808247901499,
        -0.0071127815172076225,
        -0.004839502274990082
      ]
    },
    {
      "name": "Skirt1B_end_0133",
      "rotation": [
        0.0,
        1.269535132014338e-17,
        0.0,
        1.0
      ],
      "translation": [
        0.0,
        0.001553017646074295,
        0.0
      ]
    },
    {
      "children": [
        134
      ],
      "name": "Skirt2B_082",
      "rotation": [
        1.8695298212088712e-23,
        0.5519371628761292,
        -2.824550234390576e-23,
        0.8338857293128967
      ],
      "scale": [
        0.9999999403953552,
        0.9999998807907104,
        0.9999999403953552
      ],
      "translation": [
        0.012877414003014565,
        0.004085961729288101,
        -0.0069302842020988464
      ]
    },
    {
      "name": "Skirt2B_end_0134",
      "rotation": [
        7.638477929034578e-42,
        -5.771217420291395e-19,
        1.3234889800848443e-23,
        1.0
      ],
      "translation": [
        1.3877787807814457e-17,
        0.0015530181117355824,
        -6.938893903907228e-18
      ]
    },
    {
      "children": [
        136
      ],
      "name": "Skirt3B_083",
      "rotation": [
        -5.377563816695769e-23,
        0.6186915636062622,
        2.550251306959471e-23,
        0.7856341004371643
      ],
      "translation": [
        -0.001085176132619381,
        0.014391585253179073,
        -0.006095901131629944
      ]
    },
    {
      "name": "Skirt3B_end_0135",
      "rotation": [
        3.308722450212111e-24,
        -6.632212659297707e-19,
        -3.970466940254533e-23,
        1.0
      ],
      "translation": [
        0.0,
        0.001553017646074295,
        -3.469446951953614e-18
      ]
    },
    {
      "children": [
        138,
        140
      ],
      "name": "RightUpLeg_084",
      "rotation": [
        -1.1156178659360344e-30,
        0.7071067690849304,
        1.1156177718964864e-30,
        0.7071068286895752
      ],
      "scale": [
        1.0,
        0.9999999403953552,
        1.0
      ],
      "translation": [
        -0.009029984474182129,
        0.0010455184383317828,
        -0.007973745465278625
      ]
    },
    {
      "children": [
        139
      ],
      "name": "RightUpLegRoll_085",
      "rotation": [
        0.0,
        2.741774231301785e-24,
        0.0,
        1.0
      ],
      "translation": [
        0.02061723917722702,
        0.0013892791466787457,
        2.0083219531841223e-09
      ]
    },
    {
      "name": "RightUpLegRoll_end_0136",
      "rotation": [
        -7.888609052210118e-31,
        -3.875670866337663e-24,
        2.6469779601696886e-23,
        1.0
      ],
      "translation": [
        -1.3877787807814457e-17,
        0.0015530178789049387,
        0.0
      ]
    },
    {
      "children": [
        141
      ],
      "name": "RightLeg_086",
      "rotation": [
        0.0,
        5.960465898624534e-08,
        0.0,
        1.0
      ],
      "translation": [
        0.04650367051362991,
        0.0031327581964433193,
        2.208531135750036e-09
      ]
    },
    {
      "children": [
        142
      ],
      "name": "RightFoot_087",
      "rotation": [
        -7.888607171419157e-31,
        -5.960465898624534e-08,
        1.3234889800848443e-23,
        1.0
      ],
      "translation": [
        0.04736003279685974,
        0.004562441259622574,
        8.836009257606747e-09
      ]
    },
    {
      "children": [
        143
      ],
      "name": "RightToeBase_088",
      "rotation": [
        -2.3665827156630354e-30,
        -3.552713678800501e-15,
        -1.3234889800848443e-23,
        1.0
      ],
      "translation": [
        0.0035725999623537064,
        -0.009723699651658535,
        -2.217457190090144e-10
      ]
    },
    {
      "name": "RightToeBase_end_0137",
      "rotation": [
        -7.888609052210118e-31,
        2.741868500179959e-24,
        0.0,
        1.0
      ],
      "translation": [
        -8.673617379884035e-19,
        0.0015530178789049387,
        0.0
      ]
    },
    {
      "matrix": [
        100.0,
        0.0,
        0.0,
        0.0,
        0.0,
        6.123233995736766e-15,
        -100.0,
        0.0,
        0.0,
        100.0,
        6.123233995736766e-15,
        0.0,
        0.0,
        0.0,
        0.0,
        1.0
      ],
      "name": "Object_144"
    },
    {
      "mesh": 0,
      "name": "Object_145",
      "skin": 0
    },
    {
      "matrix": [
        100.0,
        0.0,
        0.0,
        0.0,
        0.0,
        6.123233995736766e-15,
        -100.0,
        0.0,
        0.0,
        100.0,
        6.123233995736766e-15,
        0.0,
        0.0,
        0.0,
        0.0,
        1.0
      ],
      "name": "Object_146"
    },
    {
      "mesh": 1,
      "name": "Object_147",
      "skin": 0
    },
    {
      "matrix": [
        100.0,
        0.0,
        0.0,
        0.0,
        0.0,
        6.123233995736766e-15,
        -100.0,
        0.0,
        0.0,
        100.0,
        6.123233995736766e-15,
        0.0,
        0.0,
        0.0,
        0.0,
        1.0
      ],
      "name": "Object_148"
    },
    {
      "mesh": 2,
      "name": "Object_149",
      "skin": 0
    },
    {
      "matrix": [
        100.0,
        0.0,
        0.0,
        0.0,
        0.0,
        6.123233995736766e-15,
        -100.0,
        0.0,
        0.0,
        100.0,
        6.123233995736766e-15,
        0.0,
        0.0,
        0.0,
        0.0,
        1.0
      ],
      "name": "Object_150"
    },
    {
      "mesh": 3,
      "name": "Object_151",
      "skin": 0
    },
    {
      "matrix": [
        100.0,
        0.0,
        0.0,
        0.0,
        0.0,
        6.123233995736766e-15,
        -100.0,
        0.0,
        0.0,
        100.0,
        6.123233995736766e-15,
        0.0,
        0.0,
        0.0,
        0.0,
        1.0
      ],
      "name": "Object_152"
    },
    {
      "mesh": 4,
      "name": "Object_153",
      "skin": 0
    }
  ],
  "samplers": [
    {
      "magFilter": 9729,
      "minFilter": 9987,
      "wrapS": 10497,
      "wrapT": 10497
    }
  ],
  "scene": 0,
  "scenes": [
    {
      "name": "Sketchfab_Scene",
      "nodes": [
        0
      ]
    }
  ],
  "skins": [
    {
      "inverseBindMatrices": 24,
      "joints": [
        5,
        6,
        7,
        8,
        9,
        10,
        11,
        12,
        13,
        14,
        15,
        16,
        17,
        18,
        19,
        20,
        21,
        22,
        23,
        24,
        25,
        26,
        27,
        28,
        29,
        30,
        31,
        32,
        33,
        34,
        35,
        36,
        37,
        38,
        39,
        40,
        41,
        42,
        43,
        44,
        45,
        46,
        47,
        48,
        49,
        50,
        51,
        52,
        53,
        54,
        55,
        56,
        57,
        58,
        59,
        60,
        61,
        62,
        63,
        64,
        65,
        66,
        67,
        68,
        69,
        70,
        71,
        72,
        73,
        74,
        75,
        76,
        77,
        78,
        79,
        80,
        81,
        82,
        83,
        84,
        85,
        86,
        87,
        88,
        89,
        90,
        91,
        92,
        93,
        94,
        95,
        96,
        97,
        98,
        99,
        100,
        101,
        102,
        103,
        104,
        105,
        106,
        107,
        108,
        109,
        110,
        111,
        112,
        113,
        114,
        115,
        116,
        117,
        118,
        119,
        120,
        121,
        122,
        123,
        124,
        125,
        126,
        127,
        128,
        129,
        130,
        131,
        132,
        133,
        134,
        135,
        136,
        137,
        138,
        139,
        140,
        141,
        142,
        143
      ],
      "skeleton": 5
    }
  ],
  "textures": [
    {
      "sampler": 0,
      "source": 0
    },
    {
      "sampler": 0,
      "source": 1
    },
    {
      "sampler": 0,
      "source": 2
    },
    {
      "sampler": 0,
      "source": 3
    },
    {
      "sampler": 0,
      "source": 4
    },
    {
      "sampler": 0,
      "source": 5
    }
  ]
}
